<?xml version="1.0" encoding="utf-8"?>
<!DOCTYPE svg PUBLIC "-//W3C//DTD SVG 20010904//EN" "http://www.w3.org/TR/2001/REC-SVG-20010904/DTD/svg10.dtd">
<svg version="1.0" xmlns="http://www.w3.org/2000/svg" width="2000px" height="2000px" viewBox="0 0 2000 2000" preserveAspectRatio="xMidYMid meet">
 <g fill="#000000">
  <path d="M930.5 1985.9 c-7.7 -0.4 -17.6 -1.4 -22 -2.3 -4.4 -0.9 -14.6 -2.3 -22.6 -3.1 -20.9 -2 -37.3 -5.7 -62.5 -14 -24.3 -8 -46.8 -18.5 -58.2 -27.2 -3.4 -2.7 -11.1 -10.2 -17.1 -16.8 -9 -10 -12.3 -14.7 -19.6 -27.5 -11.3 -19.9 -17.2 -32.3 -22.9 -48.5 -2.6 -7.1 -6.2 -17 -8.1 -22 -3.8 -9.9 -4.7 -13.5 -7.6 -30.5 -1.5 -9.4 -1.9 -16.5 -1.9 -38.7 0 -23.7 0.3 -29.3 2.5 -44.3 1.4 -9.4 2.8 -18.3 3.1 -19.8 1.2 -5.4 4.8 -15.7 5.9 -17.2 0.7 -0.8 4 -6.9 7.5 -13.5 3.4 -6.6 7.6 -13.8 9.3 -16 8.8 -11.5 29.2 -30.4 47.4 -44.1 16 -12 18.7 -13.9 21.8 -15.5 1.6 -0.9 6.5 -3.7 10.8 -6.2 10.6 -6.4 18.3 -10.2 30.7 -15.3 5.8 -2.3 16 -6.5 22.7 -9.2 6.7 -2.8 15.5 -5.9 19.5 -7.1 23.5 -6.7 26 -7.1 45.8 -8.2 10.7 -0.6 20.6 -0.8 22 -0.5 1.5 0.2 4.4 0.1 6.6 -0.4 3.2 -0.8 5.7 -0.3 14.4 2.4 14.4 4.6 26.4 9.7 40 16.9 6.3 3.4 12.9 6.9 14.5 7.7 4.6 2.2 14 12 16.8 17.6 5.7 11.2 10.4 34.6 9.3 46.2 -1.1 12 -14.3 32.7 -25.6 40.3 -1.9 1.2 -4.8 3.7 -6.5 5.5 -2.4 2.6 -5.5 4 -16 7.4 -15.7 5 -22.8 5.8 -31 3.6 -6.9 -1.8 -8.6 -1.9 -36.5 -1.9 -27.2 0 -38.5 1.9 -53.3 9.1 -9.5 4.6 -11 5.8 -18.9 14.4 -15.4 16.9 -23.3 29.7 -25.8 42.3 -0.6 3.3 -1.9 8 -2.7 10.5 -4.2 12.4 3.4 55.7 12.5 71.2 3.5 6 18.2 22 23.6 25.7 2.2 1.5 10.3 6.2 17.8 10.4 l13.7 7.7 18.8 3.7 c17.8 3.5 19.8 3.7 38.8 3.8 19.5 0 20.2 -0.1 28.4 -2.9 10.3 -3.5 31 -13.9 38.1 -19.1 2.9 -2.1 7 -6.1 9.2 -8.9 2.2 -2.8 4.9 -5.7 5.9 -6.4 1.1 -0.7 3.7 -4 6 -7.3 2.2 -3.3 7.6 -10.6 12 -16.2 7.3 -9.3 16.9 -26 16.9 -29.3 0 -0.7 2.8 -7.9 6.1 -16 4.7 -11.4 6.6 -17.3 8 -25.6 1 -6 2.7 -15 3.8 -20.1 1.1 -5.1 2.5 -14.2 3.1 -20.3 0.7 -7.6 1.4 -11.2 2.5 -12 3 -2.2 1.3 -43.9 -2.6 -62.6 -5.1 -25.3 -10.3 -43.6 -17.2 -60.3 -8.6 -21.2 -23.2 -52 -29 -61.2 -5.1 -8 -22.8 -40.5 -30.1 -55 -9.5 -19.1 -25.3 -43.3 -38.3 -58.9 -3.2 -3.8 -8.5 -11 -11.8 -15.9 -3.3 -4.9 -8.2 -11.9 -10.9 -15.5 -5.9 -7.8 -13.3 -23.2 -14.7 -30.3 -1 -5.2 -1.1 -15.5 -0.5 -31.9 0.2 -4.9 0 -8.8 -0.4 -8.8 -1.3 0 -9.7 13 -13.1 20.5 -2.7 5.6 -3.3 8.3 -3.7 16.2 -0.3 5.9 0 11.6 0.8 15.1 1.6 7.1 7.7 19.9 13 27.2 2.2 3 6.8 9.8 10.4 15 8.3 12.2 12.7 18 20.1 27.1 5.3 6.6 11.8 15.2 13.8 18.6 0.8 1.3 -7.8 1.1 -45.3 -0.8 -16.9 -0.9 -89 -1.2 -173 -0.6 -17.1 0.1 -59.9 -1.9 -71.9 -3.4 -17.3 -2.1 -17.9 -2.3 -25.7 -10.4 -14.4 -14.7 -17.4 -21.6 -18.1 -42 -0.7 -18.9 1.7 -27.9 10.7 -40 8.2 -10.9 15 -15.5 23 -15.5 4.4 0 4.8 -0.8 2.9 -5.7 -0.6 -1.5 -2.4 -7.3 -4 -12.8 -1.5 -5.5 -4.2 -13.9 -5.8 -18.6 -4.9 -13.7 -6.4 -23 -10.7 -63.5 -1.4 -14 -1.5 -19.6 -0.6 -43 1.2 -28.5 1.4 -30.2 8.6 -54.9 8.1 -27.9 24.7 -69.3 30.6 -76 0.9 -1.1 3.4 -4.9 5.5 -8.5 8.4 -14.3 17 -26.7 22.4 -32.3 l5.6 -5.9 0.3 -26.7 c0.7 -50.8 -4.5 -116 -13.3 -168.3 -1.4 -8.3 -3 -21 -3.5 -28.2 -0.6 -7.2 -1.5 -17.8 -2 -23.6 -1.2 -12.8 -1.3 -23.7 -0.2 -24.4 0.5 -0.3 1 -3.1 1.1 -6.3 0.3 -8.2 2.6 -17.4 6.5 -26.2 1.9 -4.2 6.2 -14.1 9.6 -22.1 7.1 -16.4 12 -26.5 19.5 -39.5 2.8 -4.9 10.5 -18.4 16.9 -30 6.5 -11.5 14.6 -25.9 18.1 -32 10.4 -18.4 17.5 -32.5 17.5 -34.8 0 -1.4 -2 -4.2 -5.1 -7.2 -7 -6.9 -18.5 -22.4 -23.9 -32.3 -2.5 -4.5 -5.3 -8.5 -6.3 -8.8 -2 -0.6 -6 1.7 -18.2 11 -19.8 15 -61 53.8 -64.6 60.9 -2.5 4.8 -3.3 4.7 -2.5 -0.4 2.5 -15.5 20.5 -41.3 43.7 -62.4 8.2 -7.5 10.5 -9.4 21.5 -17.7 5.6 -4.2 10.4 -8.4 10.8 -9.3 0.3 -1 -1 -5.2 -3 -9.8 -4.9 -11 -12.4 -29.3 -18.6 -45.5 -2.8 -7.4 -5.8 -13.6 -6.6 -14 -2.4 -0.9 -24.6 4.6 -44 11 -12.8 4.2 -22.9 8.4 -34 13.9 -15.3 7.8 -24.7 12.1 -20.8 9.6 1.1 -0.7 6 -3.9 11 -7.3 10.7 -7.2 18.3 -11.1 32.6 -17 10.4 -4.3 31.7 -11.5 45.6 -15.4 4.1 -1.2 7.5 -2.7 7.8 -3.6 0.3 -0.8 -0.1 -5.4 -0.9 -10.1 -0.8 -4.7 -1.5 -10.7 -1.5 -13.4 0 -2.6 -0.5 -5.9 -1.1 -7.3 -2.2 -4.8 -24 -14.3 -44.4 -19.5 -12.2 -3.1 -23.7 -4.3 -37.8 -3.9 -7 0.2 -12.7 0 -12.7 -0.3 0 -1.6 4.5 -2.1 20.6 -2.6 22.1 -0.7 35 0.7 56 6.2 9.1 2.4 17.2 4.1 17.8 3.9 0.9 -0.3 1.7 -4.8 2.4 -13.2 0.6 -7 2.5 -19.7 4.3 -28.2 1.7 -8.5 3.5 -17.7 3.9 -20.5 1 -7.2 5.4 -23.5 9.6 -35.5 1.9 -5.7 3.3 -11.1 3.1 -12 -4.2 -14.2 -7.2 -26.8 -8.9 -37 -3.1 -19.2 -3.4 -50.3 -0.9 -95.8 2.4 -43.6 4.3 -61.9 7.7 -75.7 1.3 -5.6 2.4 -11 2.4 -12 0 -3.2 3.2 -11.4 4.7 -11.9 1.7 -0.7 11.8 3.1 13.9 5.2 0.9 0.9 3.8 2.6 6.5 3.8 2.6 1.3 7.5 4.1 10.8 6.3 3.2 2.2 13.5 8.2 22.8 13.3 30.7 16.8 50.5 31 69.8 50 7.6 7.6 14.6 13.8 15.4 13.8 0.8 0 4.9 -1.8 9.1 -3.9 10.5 -5.5 13.7 -6.4 37 -11.1 11.3 -2.2 23.2 -4.7 26.5 -5.5 6.9 -1.7 25.1 -3 41 -3 11.4 0 35.4 1.3 36.5 2 0.4 0.2 11.9 2.7 25.7 5.4 27.9 5.6 31.6 6.7 42.3 12.2 4.2 2.1 8.3 3.9 9.1 3.9 0.9 0 7.6 -6 15 -13.3 20.2 -20 39 -33.5 71.7 -51.3 8.3 -4.6 17.9 -10.2 21.2 -12.4 3.4 -2.3 8.3 -5.1 10.9 -6.4 2.7 -1.2 5.6 -2.9 6.5 -3.8 2 -2 12.5 -6.1 14.1 -5.5 1.2 0.5 3.8 8.4 5.3 16.2 0.5 2.8 1.7 8.2 2.5 12 6.6 29.8 10.8 136.4 6.4 164.5 -1.8 11.6 -4.1 21.7 -7.8 34.5 l-2.1 7 3.6 10.4 c3.9 11.1 9.1 31 10 37.6 0.3 2.2 1.9 10.6 3.5 18.6 1.7 8.1 3.5 20 4.1 26.5 0.6 6.6 1.3 12.5 1.5 13.2 0.7 1.9 4.5 1.5 20.8 -2.8 19.5 -5 33.4 -6.4 54.6 -5.7 15.7 0.5 20.1 1.1 20.1 2.6 0 0.3 -5.3 0.5 -11.7 0.3 -6.5 -0.2 -16.1 0.2 -21.3 0.8 -9.6 1.1 -25.1 4.6 -26 5.9 -0.3 0.3 -4.3 2 -9 3.5 -9.5 3.2 -22.9 9.6 -25.4 12.1 -1.1 1.1 -1.6 3.4 -1.6 6.8 0 2.9 -0.7 9.4 -1.5 14.6 -0.9 5.2 -1.4 10 -1.1 10.7 0.3 0.7 2.6 1.7 5.3 2.3 6.5 1.4 24.7 7.1 36.3 11.4 20.8 7.7 33.5 14.1 46.5 23.4 3.3 2.3 7 5 8.3 5.9 1.3 0.9 2.1 1.8 1.8 2.1 -0.3 0.3 -8.1 -3.1 -17.3 -7.7 -25.8 -12.7 -39.9 -17.8 -67.8 -24.9 -14.9 -3.8 -16 -3.8 -17.3 -0.4 -0.6 1.6 -2.9 7.5 -5.1 13.3 -4.2 11.3 -14.2 35.8 -18.5 45.4 -1.4 3.2 -2.3 6.4 -1.8 7.1 0.4 0.7 5.2 4.7 10.7 8.8 31.6 23.6 54.9 51 62.6 73.6 2.3 6.5 2.5 11.1 0.5 11.1 -0.7 0 -1.9 -1.3 -2.6 -2.9 -1.1 -2.8 -18.1 -20.1 -32 -32.7 -23.8 -21.5 -45.4 -38.4 -49 -38.4 -1.2 0 -3.3 2.8 -6.5 8.7 -5.4 9.9 -13.2 20.6 -22.9 31.1 l-6.6 7.2 1.5 3.8 c2.2 5.2 9.9 19.3 20.1 36.8 29.6 50.9 44.8 79.4 51.5 96.1 1.7 4.3 5.3 12.6 8.1 18.6 5.2 11.2 6.8 17.9 8.7 35.7 0.5 5.7 0.6 11.9 0.1 15.5 -0.5 3.3 -1.4 13.9 -2 23.5 -0.6 9.6 -2.2 23.8 -3.5 31.5 -9.6 57.1 -15.9 140.2 -13.9 184.2 l0.7 16.7 5.7 5.8 c7.1 7.3 23.1 31.9 32.1 49.3 10.8 20.8 27.8 68.8 32.9 92.5 1.6 7.5 2.3 56.1 1 68 -0.6 5.2 -1.3 12 -1.6 15 -2.5 26.3 -5 40.3 -9.5 52.9 -1.6 4.7 -4.1 12.5 -5.4 17.3 -1.4 4.9 -3.3 11 -4.4 13.7 -2.1 5.6 -1.7 6.1 4.2 6.1 7.3 0.1 15.1 6.2 23.6 18.4 6.6 9.5 8.3 15.3 8.9 29.2 0.5 15.2 -0.9 24.4 -5.4 33.2 -3.2 6.4 -15.5 21.1 -19.5 23.2 -2 1.1 -14.4 3.5 -22.9 4.4 -11 1.2 -53.8 3 -67.5 2.8 -7.7 0 -27.5 -0.2 -44 -0.3 l-30 -0.1 -7.9 -15.7 c-9.1 -17.9 -19.1 -35.8 -21.5 -38.3 -0.9 -0.9 -3.2 -3.8 -5.1 -6.4 -1.9 -2.6 -5.5 -7.2 -8 -10.3 -2.5 -3.1 -6.8 -8.5 -9.5 -12.1 -2.7 -3.6 -8.8 -10.5 -13.6 -15.5 -4.8 -4.9 -11.8 -12.8 -15.6 -17.5 -7 -8.6 -9.9 -10.4 -12.9 -8 -0.7 0.7 -1.4 2.3 -1.4 3.5 0 2.4 17.7 30.1 28.6 44.8 7 9.5 16.5 23.8 21.7 32.9 11.5 20 22.7 41.7 22.7 44 0 0.8 3.5 9.7 7.9 19.9 4.3 10.1 8.6 20.9 9.6 23.9 1 3 2.9 8.1 4.2 11.4 2.8 6.7 10.3 31.2 10.3 33.6 0 0.9 1.8 7 4 13.5 2.2 6.6 4.9 17.2 6 23.5 1 6.3 2.3 13.6 2.9 16.1 1.2 5.1 2.3 13.7 5.1 40.4 2.6 24.2 3.6 59.6 2.1 75 -3.9 39.7 -5.9 51.6 -12.6 74 -1.8 6.1 -5.1 18 -7.4 26.5 -6.6 24.9 -12.4 42.3 -20.4 61 -7.9 18.6 -32.2 50 -45.4 58.7 -2.3 1.6 -9.5 6.8 -16 11.8 -6.5 4.9 -14 10.5 -16.8 12.4 -2.7 1.9 -5.9 4.4 -7.1 5.5 -4.7 4.7 -14.7 11.9 -20.1 14.5 -21.7 10.5 -58.1 23.4 -70.4 25.1 -4.1 0.5 -9.2 1.4 -11.4 2 -4.5 1.1 -22.9 1.1 -44 -0.1z"/>
  <path d="M1445 1178.5 l0 -44.5 -15.5 0 -15.5 0 0 -10 0 -10 43 0 43 0 0 10 0 10 -15.5 0 -15.5 0 0 44.5 0 44.5 -12 0 -12 0 0 -44.5z"/>
  <path d="M1419 1011.5 l0 -54.5 12 0 12 0 0 26 c0 14.3 0.4 26 0.8 26 0.5 0 1.4 -1.2 2.1 -2.7 0.7 -1.6 8.1 -13.2 16.4 -26 l15.2 -23.2 13.8 0 c7.5 -0.1 13.7 0.1 13.7 0.4 0 0.2 -8.1 11.6 -18.1 25.2 -10 13.6 -18.3 25.2 -18.5 25.8 -0.3 0.6 8.5 13.6 19.6 28.8 11 15.3 20 27.9 20 28.2 0 0.3 -6.5 0.5 -14.5 0.5 l-14.5 0 -16.8 -25.3 c-9.2 -14 -17.2 -26.2 -17.9 -27.3 -0.9 -1.5 -1.2 3.8 -1.2 25.4 l-0.1 27.2 -12 0 -12 0 0 -54.5z"/>
  <path d="M1429 854.5 l0 -54.5 31.5 0 31.5 0 0 9.5 0 9.5 -19.5 0 -19.5 0 0 14 0 14 18 0 18 0 0 9.5 0 9.5 -18 0 -18 0 0 21.5 0 21.5 -12 0 -12 0 0 -54.5z"/>
  <path d="M1429 697.5 l0 -54.5 31.5 0 31.5 0 0 9.5 0 9.5 -19.5 0 -19.5 0 0 14 0 14 18 0 18 0 0 9.5 0 9.5 -18 0 -18 0 0 21.5 0 21.5 -12 0 -12 0 0 -54.5z"/>
  <path d="M1445 540.5 l0 -54.5 12 0 12 0 0 54.5 0 54.5 -12 0 -12 0 0 -54.5z"/>
  <path d="M1412 383 l0 -55.3 25.8 0.6 c28.6 0.7 35.7 1.7 46.2 6.9 12.8 6.3 20.7 17.6 23.6 34 1.8 9.6 1.3 21.4 -1.2 29.8 -5.3 18 -20 32 -38.6 36.6 -4.3 1 -14.1 1.7 -31 2.1 l-24.8 0.6 0 -55.3z m49.4 33.6 c14.1 -4.3 21.8 -16.2 22 -34.1 0.1 -11.4 -2 -17.7 -7.9 -24.3 -6.8 -7.5 -12.3 -9.5 -27.2 -10 l-12.3 -0.4 0 35.1 0 35.1 10.3 0 c6.1 0 12.3 -0.6 15.1 -1.4z"/>
 </g>
</svg>
